<svg width="91" height="48" viewBox="0 0 91 48" fill="none" xmlns="http://www.w3.org/2000/svg">
<g clip-path="url(#clip0_72_1181)">
<path d="M64.9183 3.01544C59.3989 -3.41533 44.2477 0.769288 30.3952 12.5231C28.6945 13.9693 27.1176 15.4462 25.6488 16.9539H29.2666C30.1633 16.1077 31.0909 15.277 32.0494 14.4616C40.5836 7.21544 50.4319 2.52313 57.1572 2.52313C59.8009 2.52313 61.7644 3.24621 62.9857 4.67698C65.1038 7.1539 64.7637 11.5231 62.0581 16.9693H64.8874C67.4383 11.2462 67.6393 6.20006 64.9183 3.03083V3.01544ZM48.422 33.5385C47.3243 34.477 46.1957 35.3693 45.0671 36.2154C45.6855 36.4616 46.2112 36.9231 46.5359 37.5077C46.6441 37.6924 46.7214 37.8924 46.7678 38.1077C47.8809 37.277 48.9786 36.3847 50.0608 35.477C51.576 34.2001 52.9983 32.877 54.3279 31.5385H50.6792C49.9526 32.2308 49.195 32.9077 48.422 33.5539V33.5385ZM29.4676 44.4616C23.8709 46.1077 19.511 45.6924 17.4703 43.3231C15.414 40.9231 15.6614 36.7385 18.1815 31.5077H15.3522C13.0022 37.0308 12.894 41.8924 15.5223 44.9693C17.2229 46.9385 19.913 47.9847 23.3143 47.9847C25.3705 47.9847 27.6741 47.6154 30.1633 46.877C33.6728 45.8462 37.3987 44.1385 41.1247 41.9077L42.5471 39.6154L40.1352 39.5385C36.502 41.7539 32.8688 43.4308 29.4521 44.4462L29.4676 44.4616Z" fill="#49BC93"/>
<path d="M45.9638 38.7078C46.0102 39.1232 45.9019 39.5385 45.6855 39.8924L41.6812 46.3232C41.5112 46.6155 41.202 46.7693 40.8773 46.7693C40.7072 46.7693 40.5372 46.7232 40.3826 46.6308C39.9342 46.3693 39.8105 45.7847 40.0734 45.3539L42.9026 40.8155L44.0931 38.9078L44.0158 38.7847L41.5112 38.7078L36.3938 38.5385C35.8836 38.5385 35.4662 38.0924 35.4816 37.5847C35.5125 37.077 35.9454 36.6924 36.4556 36.677L44.0621 36.9232H44.0931C44.7888 36.9539 45.3763 37.3385 45.7164 37.9539C45.8556 38.2001 45.9329 38.4616 45.9329 38.7232L45.9638 38.7078Z" fill="#49BC93"/>
<path d="M29.5758 17.8308H20.2068V20.4923H29.5758V17.8308Z" fill="white"/>
<path d="M29.5757 30.6001H20.2222V22.6462H29.5757V25.3232H22.8968V27.9385H29.5757V30.6001Z" fill="white"/>
<path d="M66.2633 17.8308H56.8943V20.4923H66.2633V17.8308Z" fill="white"/>
<path d="M66.2478 30.6001H56.8943V22.6462H66.2478V25.3232H59.5689V27.9385H66.2478V30.6001Z" fill="white"/>
<path d="M0 17.7231H2.90656V30.6001H0V17.7231Z" fill="white"/>
<path d="M4.2207 17.7231H8.53416L11.2397 26.7847H11.348L14.0071 17.7231H18.4443V30.6001H15.6459V20.8616H15.5223L15.2904 21.8001L12.6621 30.6001H10.0029L7.35917 21.8001L7.14272 20.8616H7.00358V30.6001H4.23616V17.7231H4.2207Z" fill="white"/>
<path d="M31.8176 17.7231H37.8317C41.0166 17.7231 42.5781 19.4155 42.5781 22.1078C42.5781 24.8001 41.0011 26.5078 37.6926 26.5078H34.7242V30.6001H31.8176V17.7231ZM34.7242 20.2001V24.2155H37.4452C38.7748 24.2155 39.5169 23.5847 39.5169 22.477V21.9231C39.5169 20.7847 38.713 20.1847 37.4452 20.1847H34.7242V20.2001Z" fill="white"/>
<path d="M43.8767 17.7231H50.0145C53.1066 17.7231 54.6372 19.3385 54.6372 21.8462C54.6372 23.7693 53.5395 25.1693 51.6688 25.6001L54.7918 30.6155H51.4059L48.6694 26.0308H46.7833V30.6155H43.8767V17.7385V17.7231ZM46.7987 20.2001V23.8616H49.5198C50.8494 23.8616 51.5915 23.277 51.5915 22.3078V21.7539C51.5915 20.7539 50.7875 20.2001 49.5198 20.2001H46.7987Z" fill="white"/>
<path d="M68.1804 26.4155H71.1334C71.1643 27.754 72.1074 28.354 73.6225 28.354C75.1376 28.354 75.8642 27.8002 75.8642 26.8155C75.8642 25.5386 74.5347 25.3848 72.7103 25.0309C70.0821 24.5232 68.4896 23.5078 68.4896 21.2925C68.4896 18.7078 70.5149 17.3848 73.5452 17.3848C76.8228 17.3848 78.6471 18.8002 78.678 21.2309H75.7406C75.7096 20.1694 74.9212 19.5694 73.5452 19.5694C72.3238 19.5694 71.5817 20.0771 71.5817 20.9232C71.5817 22.0771 72.6639 22.2309 74.5192 22.554C77.0392 23.0001 78.9718 23.8309 78.9718 26.5694C78.9718 29.3078 76.8073 30.6001 73.5761 30.6001C70.0666 30.6001 68.2113 28.9078 68.2113 26.4155H68.1804Z" fill="white"/>
<path d="M80.2395 26.4155H83.1924C83.2234 27.754 84.1664 28.354 85.6816 28.354C87.1967 28.354 87.9233 27.8002 87.9233 26.8155C87.9233 25.5386 86.5937 25.3848 84.7694 25.0309C82.1411 24.5232 80.5487 23.5078 80.5487 21.2925C80.5487 18.7078 82.574 17.3848 85.6043 17.3848C88.8819 17.3848 90.7062 18.8002 90.7371 21.2309H87.7996C87.7687 20.1694 86.9802 19.5694 85.6043 19.5694C84.3829 19.5694 83.6408 20.0771 83.6408 20.9232C83.6408 22.0771 84.723 22.2309 86.5783 22.554C89.0983 23.0001 91.0309 23.8309 91.0309 26.5694C91.0309 29.3078 88.8664 30.6001 85.6352 30.6001C82.1257 30.6001 80.2704 28.9078 80.2704 26.4155H80.2395Z" fill="white"/>
<path d="M63.9906 39.6616C63.465 39.1078 63.2021 38.2616 63.2021 37.1232V37.0924C63.2021 36.3078 63.3413 35.6616 63.635 35.1386C63.9288 34.6155 64.3153 34.2309 64.8255 33.9693C65.3357 33.7078 65.9232 33.5847 66.6034 33.5847C67.2064 33.5847 67.732 33.677 68.1959 33.877C68.6597 34.077 69.0307 34.3386 69.2935 34.6924C69.5718 35.0463 69.7264 35.4616 69.7574 35.9539H67.9485C67.8712 35.6616 67.7166 35.4463 67.4692 35.3078C67.2219 35.1693 66.9126 35.0924 66.5571 35.0924C66.0469 35.0924 65.6604 35.2309 65.3975 35.4924C65.1347 35.7539 65.011 36.1078 65.011 36.5232V37.6155C65.011 38.0924 65.1502 38.4616 65.4284 38.6924C65.7067 38.9232 66.0623 39.0463 66.5261 39.0463C66.9899 39.0463 67.2992 38.9539 67.562 38.7693C67.8248 38.5847 67.964 38.3232 68.0103 37.9539H66.4334V36.7232H69.8192V40.4001H68.536L68.4123 39.3693H68.3505C68.2113 39.7078 67.9485 39.9847 67.5774 40.1847C67.1909 40.3847 66.7426 40.4924 66.2169 40.4924C65.2584 40.4924 64.5008 40.2155 63.9906 39.6463V39.6616Z" fill="#1C488A"/>
<path d="M72.1383 40.077C71.6435 39.8001 71.2725 39.4001 71.0251 38.877C70.7777 38.3693 70.6541 37.754 70.6541 37.0463C70.6541 36.277 70.7932 35.6616 71.0715 35.1386C71.3498 34.6309 71.7363 34.2463 72.231 33.9693C72.7257 33.7078 73.3132 33.5693 73.9935 33.5693C74.6738 33.5693 75.2613 33.7078 75.756 33.9693C76.2507 34.2309 76.6527 34.6155 76.931 35.1386C77.2093 35.6463 77.3484 36.277 77.3484 37.0309C77.3484 37.754 77.2247 38.354 76.9774 38.877C76.73 39.3847 76.3589 39.7847 75.8642 40.077C75.3695 40.354 74.7511 40.5078 73.9935 40.5078C73.2359 40.5078 72.6175 40.3693 72.1228 40.077H72.1383ZM75.1067 38.6309C75.3849 38.4001 75.5241 38.0463 75.5241 37.5693V36.4924C75.5241 36.077 75.4004 35.7386 75.153 35.477C74.9057 35.2155 74.5192 35.077 74.009 35.077C73.4988 35.077 73.1123 35.2155 72.8649 35.477C72.6175 35.7386 72.4938 36.077 72.4938 36.4924V37.5693C72.4938 38.0309 72.633 38.3847 72.9113 38.6309C73.1896 38.8616 73.5606 38.9847 74.009 38.9847C74.4573 38.9847 74.8284 38.8616 75.1067 38.6309Z" fill="#1C488A"/>
<path d="M78.3689 33.677H80.1159V38.877H83.1771V40.4155H78.3844V33.677H78.3689Z" fill="#1C488A"/>
<path d="M84.1355 33.6616H86.9802C87.7223 33.6616 88.3562 33.8001 88.8355 34.077C89.3302 34.3539 89.7012 34.7385 89.9332 35.2462C90.1805 35.7539 90.3042 36.3385 90.3042 37.0155V37.077C90.3042 37.8309 90.1651 38.4616 89.8868 38.9539C89.6085 39.4462 89.222 39.8155 88.7272 40.0616C88.2325 40.3078 87.645 40.4155 86.9802 40.4155H84.1355V33.677V33.6616ZM86.9957 38.9232C87.4904 38.9232 87.8769 38.8001 88.1243 38.5539C88.3717 38.3078 88.4953 37.9693 88.4953 37.5539V36.5078C88.4953 36.0924 88.3717 35.7693 88.1397 35.5078C87.8924 35.2616 87.5213 35.1385 87.0111 35.1385H85.9134V38.9232H87.0111H86.9957Z" fill="#1C488A"/>
<path d="M64.9183 3.01544C59.3989 -3.41533 44.2477 0.769288 30.3952 12.5231C28.6945 13.9693 27.1176 15.4462 25.6488 16.9539H29.2666C30.1633 16.1077 31.0909 15.277 32.0494 14.4616C40.5836 7.21544 50.4319 2.52313 57.1572 2.52313C59.8009 2.52313 61.7644 3.24621 62.9857 4.67698C65.1038 7.1539 64.7637 11.5231 62.0581 16.9693H64.8874C67.4383 11.2462 67.6393 6.20006 64.9183 3.03083V3.01544ZM48.422 33.5385C47.3243 34.477 46.1957 35.3693 45.0671 36.2154C45.6855 36.4616 46.2112 36.9231 46.5359 37.5077C46.6441 37.6924 46.7214 37.8924 46.7678 38.1077C47.8809 37.277 48.9786 36.3847 50.0608 35.477C51.576 34.2001 52.9983 32.877 54.3279 31.5385H50.6792C49.9526 32.2308 49.195 32.9077 48.422 33.5539V33.5385ZM29.4676 44.4616C23.8709 46.1077 19.511 45.6924 17.4703 43.3231C15.414 40.9231 15.6614 36.7385 18.1815 31.5077H15.3522C13.0022 37.0308 12.894 41.8924 15.5223 44.9693C17.2229 46.9385 19.913 47.9847 23.3143 47.9847C25.3705 47.9847 27.6741 47.6154 30.1633 46.877C33.6728 45.8462 37.3987 44.1385 41.1247 41.9077L42.5471 39.6154L40.1352 39.5385C36.502 41.7539 32.8688 43.4308 29.4521 44.4462L29.4676 44.4616Z" fill="url(#paint0_linear_72_1181)"/>
<path d="M45.9638 38.7078C46.0102 39.1232 45.9019 39.5385 45.6855 39.8924L41.6812 46.3232C41.5112 46.6155 41.202 46.7693 40.8773 46.7693C40.7072 46.7693 40.5372 46.7232 40.3826 46.6308C39.9342 46.3693 39.8105 45.7847 40.0734 45.3539L42.9026 40.8155L44.0931 38.9078L44.0158 38.7847L41.5112 38.7078L36.3938 38.5385C35.8836 38.5385 35.4662 38.0924 35.4816 37.5847C35.5125 37.077 35.9454 36.6924 36.4556 36.677L44.0621 36.9232H44.0931C44.7888 36.9539 45.3763 37.3385 45.7164 37.9539C45.8556 38.2001 45.9329 38.4616 45.9329 38.7232L45.9638 38.7078Z" fill="url(#paint1_linear_72_1181)"/>
<path d="M29.5758 17.8306H20.2068V20.4921H29.5758V17.8306Z" fill="#1C488A"/>
<path d="M29.5757 30.5998H20.2222V22.646H29.5757V25.3229H22.8968V27.9383H29.5757V30.5998Z" fill="#1C488A"/>
<path d="M66.2633 17.8306H56.8943V20.4921H66.2633V17.8306Z" fill="#1C488A"/>
<path d="M66.2478 30.5998H56.8943V22.646H66.2478V25.3229H59.5689V27.9383H66.2478V30.5998Z" fill="#1C488A"/>
<path d="M0 17.7229H2.90656V30.5998H0V17.7229Z" fill="#1C488A"/>
<path d="M4.2207 17.7229H8.53416L11.2397 26.7844H11.348L14.0071 17.7229H18.4443V30.5998H15.6459V20.8614H15.5223L15.2904 21.7998L12.6621 30.5998H10.0029L7.35917 21.7998L7.14272 20.8614H7.00358V30.5998H4.23616V17.7229H4.2207Z" fill="#1C488A"/>
<path d="M31.8176 17.7229H37.8317C41.0166 17.7229 42.5781 19.4152 42.5781 22.1075C42.5781 24.7998 41.0011 26.5075 37.6926 26.5075H34.7242V30.5998H31.8176V17.7229ZM34.7242 20.1998V24.2152H37.4452C38.7748 24.2152 39.5169 23.5844 39.5169 22.4767V21.9229C39.5169 20.7844 38.713 20.1844 37.4452 20.1844H34.7242V20.1998Z" fill="#1C488A"/>
<path d="M43.8767 17.7229H50.0145C53.1066 17.7229 54.6372 19.3383 54.6372 21.846C54.6372 23.7691 53.5395 25.1691 51.6688 25.5998L54.7918 30.6152H51.4059L48.6694 26.0306H46.7833V30.6152H43.8767V17.7383V17.7229ZM46.7987 20.1998V23.8614H49.5198C50.8494 23.8614 51.5915 23.2767 51.5915 22.3075V21.7537C51.5915 20.7537 50.7875 20.1998 49.5198 20.1998H46.7987Z" fill="#1C488A"/>
<path d="M68.1804 26.4153H71.1334C71.1643 27.7538 72.1074 28.3538 73.6225 28.3538C75.1376 28.3538 75.8642 27.7999 75.8642 26.8153C75.8642 25.5384 74.5347 25.3845 72.7103 25.0307C70.0821 24.523 68.4896 23.5076 68.4896 21.2922C68.4896 18.7076 70.5149 17.3845 73.5452 17.3845C76.8228 17.3845 78.6471 18.7999 78.678 21.2307H75.7406C75.7096 20.1691 74.9212 19.5691 73.5452 19.5691C72.3238 19.5691 71.5817 20.0768 71.5817 20.923C71.5817 22.0768 72.6639 22.2307 74.5192 22.5538C77.0392 22.9999 78.9718 23.8307 78.9718 26.5691C78.9718 29.3076 76.8073 30.5999 73.5761 30.5999C70.0666 30.5999 68.2113 28.9076 68.2113 26.4153H68.1804Z" fill="#1C488A"/>
<path d="M80.2395 26.4153H83.1924C83.2234 27.7538 84.1664 28.3538 85.6816 28.3538C87.1967 28.3538 87.9233 27.7999 87.9233 26.8153C87.9233 25.5384 86.5937 25.3845 84.7694 25.0307C82.1411 24.523 80.5487 23.5076 80.5487 21.2922C80.5487 18.7076 82.574 17.3845 85.6043 17.3845C88.8819 17.3845 90.7062 18.7999 90.7371 21.2307H87.7996C87.7687 20.1691 86.9802 19.5691 85.6043 19.5691C84.3829 19.5691 83.6408 20.0768 83.6408 20.923C83.6408 22.0768 84.723 22.2307 86.5783 22.5538C89.0983 22.9999 91.0309 23.8307 91.0309 26.5691C91.0309 29.3076 88.8664 30.5999 85.6352 30.5999C82.1257 30.5999 80.2704 28.9076 80.2704 26.4153H80.2395Z" fill="#1C488A"/>
<g clip-path="url(#clip1_72_1181)">
<path d="M64.9183 3.01544C59.3989 -3.41533 44.2477 0.769288 30.3952 12.5231C28.6945 13.9693 27.1176 15.4462 25.6488 16.9539H29.2666C30.1633 16.1077 31.0909 15.277 32.0494 14.4616C40.5836 7.21544 50.4319 2.52313 57.1572 2.52313C59.8009 2.52313 61.7644 3.24621 62.9857 4.67698C65.1038 7.1539 64.7637 11.5231 62.0581 16.9693H64.8874C67.4383 11.2462 67.6393 6.20006 64.9183 3.03083V3.01544ZM48.422 33.5385C47.3243 34.477 46.1957 35.3693 45.0671 36.2154C45.6855 36.4616 46.2112 36.9231 46.5359 37.5077C46.6441 37.6924 46.7214 37.8924 46.7678 38.1077C47.8809 37.277 48.9786 36.3847 50.0608 35.477C51.576 34.2001 52.9983 32.877 54.3279 31.5385H50.6792C49.9526 32.2308 49.195 32.9077 48.422 33.5539V33.5385ZM29.4676 44.4616C23.8709 46.1077 19.511 45.6924 17.4703 43.3231C15.414 40.9231 15.6614 36.7385 18.1815 31.5077H15.3522C13.0022 37.0308 12.894 41.8924 15.5223 44.9693C17.2229 46.9385 19.913 47.9847 23.3143 47.9847C25.3705 47.9847 27.6741 47.6154 30.1633 46.877C33.6728 45.8462 37.3987 44.1385 41.1247 41.9077L42.5471 39.6154L40.1352 39.5385C36.502 41.7539 32.8688 43.4308 29.4521 44.4462L29.4676 44.4616Z" fill="#49BC93"/>
<path d="M45.9638 38.7078C46.0102 39.1232 45.9019 39.5385 45.6855 39.8924L41.6812 46.3232C41.5112 46.6155 41.202 46.7693 40.8773 46.7693C40.7072 46.7693 40.5372 46.7232 40.3826 46.6308C39.9342 46.3693 39.8105 45.7847 40.0734 45.3539L42.9026 40.8155L44.0931 38.9078L44.0158 38.7847L41.5112 38.7078L36.3938 38.5385C35.8836 38.5385 35.4662 38.0924 35.4816 37.5847C35.5125 37.077 35.9454 36.6924 36.4556 36.677L44.0621 36.9232H44.0931C44.7888 36.9539 45.3763 37.3385 45.7164 37.9539C45.8556 38.2001 45.9329 38.4616 45.9329 38.7232L45.9638 38.7078Z" fill="#49BC93"/>
<path d="M29.5758 17.8308H20.2068V20.4923H29.5758V17.8308Z" fill="white"/>
<path d="M29.5757 30.6001H20.2222V22.6462H29.5757V25.3232H22.8968V27.9385H29.5757V30.6001Z" fill="white"/>
<path d="M66.2633 17.8308H56.8943V20.4923H66.2633V17.8308Z" fill="white"/>
<path d="M66.2478 30.6001H56.8943V22.6462H66.2478V25.3232H59.5689V27.9385H66.2478V30.6001Z" fill="white"/>
<path d="M0 17.7231H2.90656V30.6001H0V17.7231Z" fill="white"/>
<path d="M4.2207 17.7231H8.53416L11.2397 26.7847H11.348L14.0071 17.7231H18.4443V30.6001H15.6459V20.8616H15.5223L15.2904 21.8001L12.6621 30.6001H10.0029L7.35917 21.8001L7.14272 20.8616H7.00358V30.6001H4.23616V17.7231H4.2207Z" fill="white"/>
<path d="M31.8176 17.7231H37.8317C41.0166 17.7231 42.5781 19.4155 42.5781 22.1078C42.5781 24.8001 41.0011 26.5078 37.6926 26.5078H34.7242V30.6001H31.8176V17.7231ZM34.7242 20.2001V24.2155H37.4452C38.7748 24.2155 39.5169 23.5847 39.5169 22.477V21.9231C39.5169 20.7847 38.713 20.1847 37.4452 20.1847H34.7242V20.2001Z" fill="white"/>
<path d="M43.8767 17.7231H50.0145C53.1066 17.7231 54.6372 19.3385 54.6372 21.8462C54.6372 23.7693 53.5395 25.1693 51.6688 25.6001L54.7918 30.6155H51.4059L48.6694 26.0308H46.7833V30.6155H43.8767V17.7385V17.7231ZM46.7987 20.2001V23.8616H49.5198C50.8494 23.8616 51.5915 23.277 51.5915 22.3078V21.7539C51.5915 20.7539 50.7875 20.2001 49.5198 20.2001H46.7987Z" fill="white"/>
<path d="M68.1804 26.4155H71.1334C71.1643 27.754 72.1074 28.354 73.6225 28.354C75.1376 28.354 75.8642 27.8002 75.8642 26.8155C75.8642 25.5386 74.5347 25.3848 72.7103 25.0309C70.0821 24.5232 68.4896 23.5078 68.4896 21.2925C68.4896 18.7078 70.5149 17.3848 73.5452 17.3848C76.8228 17.3848 78.6471 18.8002 78.678 21.2309H75.7406C75.7096 20.1694 74.9212 19.5694 73.5452 19.5694C72.3238 19.5694 71.5817 20.0771 71.5817 20.9232C71.5817 22.0771 72.6639 22.2309 74.5192 22.554C77.0392 23.0001 78.9718 23.8309 78.9718 26.5694C78.9718 29.3078 76.8073 30.6001 73.5761 30.6001C70.0666 30.6001 68.2113 28.9078 68.2113 26.4155H68.1804Z" fill="white"/>
<path d="M80.2395 26.4155H83.1924C83.2234 27.754 84.1664 28.354 85.6816 28.354C87.1967 28.354 87.9233 27.8002 87.9233 26.8155C87.9233 25.5386 86.5937 25.3848 84.7694 25.0309C82.1411 24.5232 80.5487 23.5078 80.5487 21.2925C80.5487 18.7078 82.574 17.3848 85.6043 17.3848C88.8819 17.3848 90.7062 18.8002 90.7371 21.2309H87.7996C87.7687 20.1694 86.9802 19.5694 85.6043 19.5694C84.3829 19.5694 83.6408 20.0771 83.6408 20.9232C83.6408 22.0771 84.723 22.2309 86.5783 22.554C89.0983 23.0001 91.0309 23.8309 91.0309 26.5694C91.0309 29.3078 88.8664 30.6001 85.6352 30.6001C82.1257 30.6001 80.2704 28.9078 80.2704 26.4155H80.2395Z" fill="white"/>
<path d="M63.9906 39.6616C63.465 39.1078 63.2021 38.2616 63.2021 37.1232V37.0924C63.2021 36.3078 63.3413 35.6616 63.635 35.1386C63.9288 34.6155 64.3153 34.2309 64.8255 33.9693C65.3357 33.7078 65.9232 33.5847 66.6034 33.5847C67.2064 33.5847 67.732 33.677 68.1959 33.877C68.6597 34.077 69.0307 34.3386 69.2935 34.6924C69.5718 35.0463 69.7264 35.4616 69.7574 35.9539H67.9485C67.8712 35.6616 67.7166 35.4463 67.4692 35.3078C67.2219 35.1693 66.9126 35.0924 66.5571 35.0924C66.0469 35.0924 65.6604 35.2309 65.3975 35.4924C65.1347 35.7539 65.011 36.1078 65.011 36.5232V37.6155C65.011 38.0924 65.1502 38.4616 65.4284 38.6924C65.7067 38.9232 66.0623 39.0463 66.5261 39.0463C66.9899 39.0463 67.2992 38.9539 67.562 38.7693C67.8248 38.5847 67.964 38.3232 68.0103 37.9539H66.4334V36.7232H69.8192V40.4001H68.536L68.4123 39.3693H68.3505C68.2113 39.7078 67.9485 39.9847 67.5774 40.1847C67.1909 40.3847 66.7426 40.4924 66.2169 40.4924C65.2584 40.4924 64.5008 40.2155 63.9906 39.6463V39.6616Z" fill="#1C488A"/>
<path d="M72.1383 40.077C71.6435 39.8001 71.2725 39.4001 71.0251 38.877C70.7777 38.3693 70.6541 37.754 70.6541 37.0463C70.6541 36.277 70.7932 35.6616 71.0715 35.1386C71.3498 34.6309 71.7363 34.2463 72.231 33.9693C72.7257 33.7078 73.3132 33.5693 73.9935 33.5693C74.6738 33.5693 75.2613 33.7078 75.756 33.9693C76.2507 34.2309 76.6527 34.6155 76.931 35.1386C77.2093 35.6463 77.3484 36.277 77.3484 37.0309C77.3484 37.754 77.2247 38.354 76.9774 38.877C76.73 39.3847 76.3589 39.7847 75.8642 40.077C75.3695 40.354 74.7511 40.5078 73.9935 40.5078C73.2359 40.5078 72.6175 40.3693 72.1228 40.077H72.1383ZM75.1067 38.6309C75.3849 38.4001 75.5241 38.0463 75.5241 37.5693V36.4924C75.5241 36.077 75.4004 35.7386 75.153 35.477C74.9057 35.2155 74.5192 35.077 74.009 35.077C73.4988 35.077 73.1123 35.2155 72.8649 35.477C72.6175 35.7386 72.4938 36.077 72.4938 36.4924V37.5693C72.4938 38.0309 72.633 38.3847 72.9113 38.6309C73.1896 38.8616 73.5606 38.9847 74.009 38.9847C74.4573 38.9847 74.8284 38.8616 75.1067 38.6309Z" fill="#1C488A"/>
<path d="M78.3689 33.677H80.1159V38.877H83.1771V40.4155H78.3844V33.677H78.3689Z" fill="#1C488A"/>
<path d="M84.1355 33.6616H86.9802C87.7223 33.6616 88.3562 33.8001 88.8355 34.077C89.3302 34.3539 89.7012 34.7385 89.9332 35.2462C90.1805 35.7539 90.3042 36.3385 90.3042 37.0155V37.077C90.3042 37.8309 90.1651 38.4616 89.8868 38.9539C89.6085 39.4462 89.222 39.8155 88.7272 40.0616C88.2325 40.3078 87.645 40.4155 86.9802 40.4155H84.1355V33.677V33.6616ZM86.9957 38.9232C87.4904 38.9232 87.8769 38.8001 88.1243 38.5539C88.3717 38.3078 88.4953 37.9693 88.4953 37.5539V36.5078C88.4953 36.0924 88.3717 35.7693 88.1397 35.5078C87.8924 35.2616 87.5213 35.1385 87.0111 35.1385H85.9134V38.9232H87.0111H86.9957Z" fill="#1C488A"/>
<path d="M64.9183 3.01544C59.3989 -3.41533 44.2477 0.769288 30.3952 12.5231C28.6945 13.9693 27.1176 15.4462 25.6488 16.9539H29.2666C30.1633 16.1077 31.0909 15.277 32.0494 14.4616C40.5836 7.21544 50.4319 2.52313 57.1572 2.52313C59.8009 2.52313 61.7644 3.24621 62.9857 4.67698C65.1038 7.1539 64.7637 11.5231 62.0581 16.9693H64.8874C67.4383 11.2462 67.6393 6.20006 64.9183 3.03083V3.01544ZM48.422 33.5385C47.3243 34.477 46.1957 35.3693 45.0671 36.2154C45.6855 36.4616 46.2112 36.9231 46.5359 37.5077C46.6441 37.6924 46.7214 37.8924 46.7678 38.1077C47.8809 37.277 48.9786 36.3847 50.0608 35.477C51.576 34.2001 52.9983 32.877 54.3279 31.5385H50.6792C49.9526 32.2308 49.195 32.9077 48.422 33.5539V33.5385ZM29.4676 44.4616C23.8709 46.1077 19.511 45.6924 17.4703 43.3231C15.414 40.9231 15.6614 36.7385 18.1815 31.5077H15.3522C13.0022 37.0308 12.894 41.8924 15.5223 44.9693C17.2229 46.9385 19.913 47.9847 23.3143 47.9847C25.3705 47.9847 27.6741 47.6154 30.1633 46.877C33.6728 45.8462 37.3987 44.1385 41.1247 41.9077L42.5471 39.6154L40.1352 39.5385C36.502 41.7539 32.8688 43.4308 29.4521 44.4462L29.4676 44.4616Z" fill="url(#paint2_linear_72_1181)"/>
<path d="M45.9638 38.7078C46.0102 39.1232 45.9019 39.5385 45.6855 39.8924L41.6812 46.3232C41.5112 46.6155 41.202 46.7693 40.8773 46.7693C40.7072 46.7693 40.5372 46.7232 40.3826 46.6308C39.9342 46.3693 39.8105 45.7847 40.0734 45.3539L42.9026 40.8155L44.0931 38.9078L44.0158 38.7847L41.5112 38.7078L36.3938 38.5385C35.8836 38.5385 35.4662 38.0924 35.4816 37.5847C35.5125 37.077 35.9454 36.6924 36.4556 36.677L44.0621 36.9232H44.0931C44.7888 36.9539 45.3763 37.3385 45.7164 37.9539C45.8556 38.2001 45.9329 38.4616 45.9329 38.7232L45.9638 38.7078Z" fill="url(#paint3_linear_72_1181)"/>
<path d="M29.5758 17.8306H20.2068V20.4921H29.5758V17.8306Z" fill="#1C488A"/>
<path d="M29.5757 30.5998H20.2222V22.646H29.5757V25.3229H22.8968V27.9383H29.5757V30.5998Z" fill="#1C488A"/>
<path d="M66.2633 17.8306H56.8943V20.4921H66.2633V17.8306Z" fill="#1C488A"/>
<path d="M66.2478 30.5998H56.8943V22.646H66.2478V25.3229H59.5689V27.9383H66.2478V30.5998Z" fill="#1C488A"/>
<path d="M0 17.7229H2.90656V30.5998H0V17.7229Z" fill="#1C488A"/>
<path d="M4.2207 17.7229H8.53416L11.2397 26.7844H11.348L14.0071 17.7229H18.4443V30.5998H15.6459V20.8614H15.5223L15.2904 21.7998L12.6621 30.5998H10.0029L7.35917 21.7998L7.14272 20.8614H7.00358V30.5998H4.23616V17.7229H4.2207Z" fill="#1C488A"/>
<path d="M31.8176 17.7229H37.8317C41.0166 17.7229 42.5781 19.4152 42.5781 22.1075C42.5781 24.7998 41.0011 26.5075 37.6926 26.5075H34.7242V30.5998H31.8176V17.7229ZM34.7242 20.1998V24.2152H37.4452C38.7748 24.2152 39.5169 23.5844 39.5169 22.4767V21.9229C39.5169 20.7844 38.713 20.1844 37.4452 20.1844H34.7242V20.1998Z" fill="#1C488A"/>
<path d="M43.8767 17.7229H50.0145C53.1066 17.7229 54.6372 19.3383 54.6372 21.846C54.6372 23.7691 53.5395 25.1691 51.6688 25.5998L54.7918 30.6152H51.4059L48.6694 26.0306H46.7833V30.6152H43.8767V17.7383V17.7229ZM46.7987 20.1998V23.8614H49.5198C50.8494 23.8614 51.5915 23.2767 51.5915 22.3075V21.7537C51.5915 20.7537 50.7875 20.1998 49.5198 20.1998H46.7987Z" fill="#1C488A"/>
<path d="M68.1804 26.4153H71.1334C71.1643 27.7538 72.1074 28.3538 73.6225 28.3538C75.1376 28.3538 75.8642 27.7999 75.8642 26.8153C75.8642 25.5384 74.5347 25.3845 72.7103 25.0307C70.0821 24.523 68.4896 23.5076 68.4896 21.2922C68.4896 18.7076 70.5149 17.3845 73.5452 17.3845C76.8228 17.3845 78.6471 18.7999 78.678 21.2307H75.7406C75.7096 20.1691 74.9212 19.5691 73.5452 19.5691C72.3238 19.5691 71.5817 20.0768 71.5817 20.923C71.5817 22.0768 72.6639 22.2307 74.5192 22.5538C77.0392 22.9999 78.9718 23.8307 78.9718 26.5691C78.9718 29.3076 76.8073 30.5999 73.5761 30.5999C70.0666 30.5999 68.2113 28.9076 68.2113 26.4153H68.1804Z" fill="#1C488A"/>
<path d="M80.2395 26.4153H83.1924C83.2234 27.7538 84.1664 28.3538 85.6816 28.3538C87.1967 28.3538 87.9233 27.7999 87.9233 26.8153C87.9233 25.5384 86.5937 25.3845 84.7694 25.0307C82.1411 24.523 80.5487 23.5076 80.5487 21.2922C80.5487 18.7076 82.574 17.3845 85.6043 17.3845C88.8819 17.3845 90.7062 18.7999 90.7371 21.2307H87.7996C87.7687 20.1691 86.9802 19.5691 85.6043 19.5691C84.3829 19.5691 83.6408 20.0768 83.6408 20.923C83.6408 22.0768 84.723 22.2307 86.5783 22.5538C89.0983 22.9999 91.0309 23.8307 91.0309 26.5691C91.0309 29.3076 88.8664 30.5999 85.6352 30.5999C82.1257 30.5999 80.2704 28.9076 80.2704 26.4153H80.2395Z" fill="#1C488A"/>
</g>
</g>
<defs>
<linearGradient id="paint0_linear_72_1181" x1="13.5742" y1="24.0001" x2="66.8818" y2="24.0001" gradientUnits="userSpaceOnUse">
<stop stop-color="#BA872C"/>
<stop offset="0.06" stop-color="#C28E29"/>
<stop offset="0.17" stop-color="#DAA422"/>
<stop offset="0.24" stop-color="#EFB81C"/>
<stop offset="0.68" stop-color="#FEF38A"/>
<stop offset="0.84" stop-color="#EDCC66"/>
<stop offset="1" stop-color="#BA872C"/>
</linearGradient>
<linearGradient id="paint1_linear_72_1181" x1="35.4816" y1="41.7078" x2="45.9792" y2="41.7078" gradientUnits="userSpaceOnUse">
<stop stop-color="#BA872C"/>
<stop offset="0.06" stop-color="#C28E29"/>
<stop offset="0.17" stop-color="#DAA422"/>
<stop offset="0.24" stop-color="#EFB81C"/>
<stop offset="0.68" stop-color="#FEF38A"/>
<stop offset="0.84" stop-color="#EDCC66"/>
<stop offset="1" stop-color="#BA872C"/>
</linearGradient>
<linearGradient id="paint2_linear_72_1181" x1="13.5742" y1="24.0001" x2="66.8818" y2="24.0001" gradientUnits="userSpaceOnUse">
<stop stop-color="#BA872C"/>
<stop offset="0.06" stop-color="#C28E29"/>
<stop offset="0.17" stop-color="#DAA422"/>
<stop offset="0.24" stop-color="#EFB81C"/>
<stop offset="0.68" stop-color="#FEF38A"/>
<stop offset="0.84" stop-color="#EDCC66"/>
<stop offset="1" stop-color="#BA872C"/>
</linearGradient>
<linearGradient id="paint3_linear_72_1181" x1="35.4816" y1="41.7078" x2="45.9792" y2="41.7078" gradientUnits="userSpaceOnUse">
<stop stop-color="#BA872C"/>
<stop offset="0.06" stop-color="#C28E29"/>
<stop offset="0.17" stop-color="#DAA422"/>
<stop offset="0.24" stop-color="#EFB81C"/>
<stop offset="0.68" stop-color="#FEF38A"/>
<stop offset="0.84" stop-color="#EDCC66"/>
<stop offset="1" stop-color="#BA872C"/>
</linearGradient>
<clipPath id="clip0_72_1181">
<rect width="91" height="48" fill="white"/>
</clipPath>
<clipPath id="clip1_72_1181">
<rect width="91" height="48" fill="white"/>
</clipPath>
</defs>
</svg>
