<svg width="32" height="32" viewBox="0 0 32 32" fill="none" xmlns="http://www.w3.org/2000/svg">
<rect x="0.5" y="31.5" width="31" height="31" rx="1.5" transform="rotate(-90 0.5 31.5)" stroke="#E5E5E5"/>
<path d="M8 20L8 23.9995C8.38095 24 8.59693 24 9.33333 24L22.6667 24C23.4031 24 24 23.9995 24 23.9995L24 20C24 20 23.4031 20 22.6667 20L9.33333 20C8.59693 20 8.38095 20 8 20Z" fill="#A0A0A0"/>
<path d="M8 14L8 17.9995C8.38095 18 8.59693 18 9.33333 18L22.6667 18C23.4031 18 24 17.9995 24 17.9995L24 14C24 14 23.4031 14 22.6667 14L9.33333 14C8.59693 14 8.38095 14 8 14Z" fill="#A0A0A0"/>
<path d="M8 8L8 11.9995C8.38095 12 8.59693 12 9.33333 12L22.6667 12C23.4031 12 24 11.9995 24 11.9995L24 8C24 8 23.4031 8 22.6667 8L9.33333 8C8.59693 8 8.38095 8 8 8Z" fill="#A0A0A0"/>
</svg>
