<svg width="32" height="32" viewBox="0 0 32 32" fill="none" xmlns="http://www.w3.org/2000/svg">
<rect x="0.5" y="0.5" width="31" height="31" rx="1.5" stroke="#E5E5E5"/>
<path d="M12 8H8.00048C8 8.38095 8 8.59693 8 9.33333V22.6667C8 23.4031 8.00048 24 8.00048 24H12C12 24 12 23.4031 12 22.6667V9.33333C12 8.59693 12 8.38095 12 8Z" fill="#A0A0A0"/>
<path d="M18 8H14.0005C14 8.38095 14 8.59693 14 9.33333V22.6667C14 23.4031 14.0005 24 14.0005 24H18C18 24 18 23.4031 18 22.6667V9.33333C18 8.59693 18 8.38095 18 8Z" fill="#A0A0A0"/>
<path d="M24 8H20.0005C20 8.38095 20 8.59693 20 9.33333V22.6667C20 23.4031 20.0005 24 20.0005 24H24C24 24 24 23.4031 24 22.6667V9.33333C24 8.59693 24 8.38095 24 8Z" fill="#A0A0A0"/>
</svg>
